HIERARCHY
ROOT Hips
{
    OFFSET   0.000000   0.000000   0.000000
    CHANNELS 6 Xposition Yposition Zposition Zrotation Xrotation Yrotation
    JOINT Chest
    {
        OFFSET   0.000000   8.007230   0.000000
        CHANNELS 3 Zrotation Xrotation Yrotation
        JOINT Chest2
        {
            OFFSET   0.000000  22.077100   0.000000
            CHANNELS 3 Zrotation Xrotation Yrotation
            JOINT Neck
            {
                OFFSET   0.000000  23.255100   0.000000
                CHANNELS 3 Zrotation Xrotation Yrotation
                JOINT Head
                {
                    OFFSET   0.000000  14.370100   1.956600
                    CHANNELS 3 Zrotation Xrotation Yrotation
                    End Site
                    {
                        OFFSET   0.000000  19.566000   0.000000
                    }
                }
            }
            JOINT LeftCollar
            {
                OFFSET   3.911900  19.017000  -0.467063
                CHANNELS 3 Zrotation Xrotation Yrotation
                JOINT LeftShoulder
                {
                    OFFSET  10.383700   0.000000   0.000000
                    CHANNELS 3 Zrotation Xrotation Yrotation
                    JOINT LeftElbow
                    {
                        OFFSET  26.662100   0.001193   0.000980
                        CHANNELS 3 Zrotation Xrotation Yrotation
                        JOINT LeftWrist
                        {
                            OFFSET  28.869000  -0.000059  -0.000082
                            CHANNELS 3 Zrotation Xrotation Yrotation
                            JOINT LeftFinger0
                            {
                                OFFSET   2.044650  -2.323450   3.252850
                                CHANNELS 3 Zrotation Xrotation Yrotation
                                JOINT LeftFinger01
                                {
                                    OFFSET   3.088130   0.000000   0.000000
                                    CHANNELS 3 Zrotation Xrotation Yrotation
                                    JOINT LeftFinger02
                                    {
                                        OFFSET   2.639460   0.000000   0.000000
                                        CHANNELS 3 Zrotation Xrotation Yrotation
                                        End Site
                                        {
                                            OFFSET   2.582190   0.000000   0.000000
                                        }
                                    }
                                }
                            }
                            JOINT LeftFinger1
                            {
                                OFFSET   8.364480   0.000000   3.252850
                                CHANNELS 3 Zrotation Xrotation Yrotation
                                JOINT LeftFinger11
                                {
                                    OFFSET   4.646930   0.000000   0.000000
                                    CHANNELS 3 Zrotation Xrotation Yrotation
                                    JOINT LeftFinger12
                                    {
                                        OFFSET   2.323470   0.000000   0.000000
                                        CHANNELS 3 Zrotation Xrotation Yrotation
                                        End Site
                                        {
                                            OFFSET   2.273050   0.000000   0.000000
                                        }
                                    }
                                }
                            }
                            JOINT LeftFinger2
                            {
                                OFFSET   8.364490   0.000016   1.078090
                                CHANNELS 3 Zrotation Xrotation Yrotation
                                JOINT LeftFinger21
                                {
                                    OFFSET   5.111610   0.000000   0.000000
                                    CHANNELS 3 Zrotation Xrotation Yrotation
                                    JOINT LeftFinger22
                                    {
                                        OFFSET   2.788150   0.000016   0.000000
                                        CHANNELS 3 Zrotation Xrotation Yrotation
                                        End Site
                                        {
                                            OFFSET   2.727660   0.000000   0.000000
                                        }
                                    }
                                }
                            }
                            JOINT LeftFinger3
                            {
                                OFFSET   7.899780   0.000015  -1.078090
                                CHANNELS 3 Zrotation Xrotation Yrotation
                                JOINT LeftFinger31
                                {
                                    OFFSET   4.646930   0.000000   0.000000
                                    CHANNELS 3 Zrotation Xrotation Yrotation
                                    JOINT LeftFinger32
                                    {
                                        OFFSET   2.323470   0.000000   0.000000
                                        CHANNELS 3 Zrotation Xrotation Yrotation
                                        End Site
                                        {
                                            OFFSET   2.273050   0.000000   0.000000
                                        }
                                    }
                                }
                            }
                            JOINT LeftFinger4
                            {
                                OFFSET   7.435090   0.000000  -3.252850
                                CHANNELS 3 Zrotation Xrotation Yrotation
                                JOINT LeftFinger41
                                {
                                    OFFSET   3.717550   0.000000   0.000000
                                    CHANNELS 3 Zrotation Xrotation Yrotation
                                    JOINT LeftFinger42
                                    {
                                        OFFSET   1.858770   0.000000   0.000000
                                        CHANNELS 3 Zrotation Xrotation Yrotation
                                        End Site
                                        {
                                            OFFSET   1.818440   0.000000   0.000000
                                        }
                                    }
                                }
                            }
                        }
                    }
                }
            }
            JOINT RightCollar
            {
                OFFSET  -3.911910  19.017000  -0.467062
                CHANNELS 3 Zrotation Xrotation Yrotation
                JOINT RightShoulder
                {
                    OFFSET -10.383700   0.000014   0.000000
                    CHANNELS 3 Zrotation Xrotation Yrotation
                    JOINT RightElbow
                    {
                        OFFSET -26.662100   0.001225   0.001091
                        CHANNELS 3 Zrotation Xrotation Yrotation
                        JOINT RightWrist
                        {
                            OFFSET -28.869000  -0.000020  -0.000085
                            CHANNELS 3 Zrotation Xrotation Yrotation
                            JOINT RightFinger0
                            {
                                OFFSET  -2.044650  -2.323490   3.252850
                                CHANNELS 3 Zrotation Xrotation Yrotation
                                JOINT RightFinger01
                                {
                                    OFFSET  -3.088130   0.000000   0.000000
                                    CHANNELS 3 Zrotation Xrotation Yrotation
                                    JOINT RightFinger02
                                    {
                                        OFFSET  -2.639460   0.000000   0.000000
                                        CHANNELS 3 Zrotation Xrotation Yrotation
                                        End Site
                                        {
                                            OFFSET  -2.582190   0.000000   0.000000
                                        }
                                    }
                                }
                            }
                            JOINT RightFinger1
                            {
                                OFFSET  -8.364480   0.000000   3.252850
                                CHANNELS 3 Zrotation Xrotation Yrotation
                                JOINT RightFinger11
                                {
                                    OFFSET  -4.646930   0.000000   0.000000
                                    CHANNELS 3 Zrotation Xrotation Yrotation
                                    JOINT RightFinger12
                                    {
                                        OFFSET  -2.323470   0.000000   0.000000
                                        CHANNELS 3 Zrotation Xrotation Yrotation
                                        End Site
                                        {
                                            OFFSET  -2.273050   0.000000   0.000000
                                        }
                                    }
                                }
                            }
                            JOINT RightFinger2
                            {
                                OFFSET  -8.364480   0.000000   1.078090
                                CHANNELS 3 Zrotation Xrotation Yrotation
                                JOINT RightFinger21
                                {
                                    OFFSET  -5.111620   0.000000   0.000000
                                    CHANNELS 3 Zrotation Xrotation Yrotation
                                    JOINT RightFinger22
                                    {
                                        OFFSET  -2.788160   0.000000   0.000000
                                        CHANNELS 3 Zrotation Xrotation Yrotation
                                        End Site
                                        {
                                            OFFSET  -2.727660   0.000000   0.000000
                                        }
                                    }
                                }
                            }
                            JOINT RightFinger3
                            {
                                OFFSET  -7.899780   0.000000  -1.078090
                                CHANNELS 3 Zrotation Xrotation Yrotation
                                JOINT RightFinger31
                                {
                                    OFFSET  -4.646930   0.000000   0.000000
                                    CHANNELS 3 Zrotation Xrotation Yrotation
                                    JOINT RightFinger32
                                    {
                                        OFFSET  -2.323470   0.000000   0.000000
                                        CHANNELS 3 Zrotation Xrotation Yrotation
                                        End Site
                                        {
                                            OFFSET  -2.273050   0.000000   0.000000
                                        }
                                    }
                                }
                            }
                            JOINT RightFinger4
                            {
                                OFFSET  -7.435090   0.000000  -3.252850
                                CHANNELS 3 Zrotation Xrotation Yrotation
                                JOINT RightFinger41
                                {
                                    OFFSET  -3.717550   0.000000   0.000000
                                    CHANNELS 3 Zrotation Xrotation Yrotation
                                    JOINT RightFinger42
                                    {
                                        OFFSET  -1.858760   0.000000   0.000000
                                        CHANNELS 3 Zrotation Xrotation Yrotation
                                        End Site
                                        {
                                            OFFSET  -1.818440   0.000000   0.000000
                                        }
                                    }
                                }
                            }
                        }
                    }
                }
            }
        }
    }
    JOINT LeftHip
    {
        OFFSET   9.783030   0.000000   0.000000
        CHANNELS 3 Zrotation Xrotation Yrotation
        JOINT LeftKnee
        {
            OFFSET   0.000063 -41.789100   0.000608
            CHANNELS 3 Zrotation Xrotation Yrotation
            JOINT LeftAnkle
            {
                OFFSET   0.000048 -41.133200  -0.000184
                CHANNELS 3 Zrotation Xrotation Yrotation
                JOINT LeftToe
                {
                    OFFSET   0.000000  -6.358960  14.674500
                    CHANNELS 3 Zrotation Xrotation Yrotation
                    End Site
                    {
                        OFFSET   0.000000   0.000000   3.913200
                    }
                }
            }
        }
    }
    JOINT RightHip
    {
        OFFSET  -9.783030   0.000000   0.000000
        CHANNELS 3 Zrotation Xrotation Yrotation
        JOINT RightKnee
        {
            OFFSET   0.000071 -41.789100   0.001239
            CHANNELS 3 Zrotation Xrotation Yrotation
            JOINT RightAnkle
            {
                OFFSET   0.000037 -41.133200  -0.000166
                CHANNELS 3 Zrotation Xrotation Yrotation
                JOINT RightToe
                {
                    OFFSET   0.000000  -6.358960  14.674500
                    CHANNELS 3 Zrotation Xrotation Yrotation
                    End Site
                    {
                        OFFSET   0.000000   0.000000   3.913200
                    }
                }
            }
        }
    }
}
MOTION
Frames: 5
Frame Time:   0.016667
 -0.313438  89.773000  -0.249362  -0.957464  -4.040820   2.044460  -0.545790   3.562800  -1.071690  -1.027560   7.135070  -2.115420   2.240350   0.198352  -0.002641   3.686990   0.400770   8.094120  -3.209670  -1.848630   4.652500 -73.330800  19.403200   2.356660  -3.630060  -6.267370 -20.231000  16.807200  -6.164490  11.169600  46.987500  41.092400 -81.715100 -24.675300   0.003607   0.001674  -7.337650   0.000346  -0.002590 -39.947600   6.048930  -7.171130 -32.994800   0.001827   0.002142 -23.217500   0.001902  -0.002370 -32.220400  -3.158630   4.996630 -48.537200   0.003594  -0.001900 -32.325800   0.003779  -0.000642 -30.396500  -2.997820   5.094570 -45.794900   0.002238  -0.004724 -30.499400  -0.001340   0.000131 -46.859200  -4.318880   4.036840 -70.517100   0.001668   0.002157 -46.964400   0.000392   0.001785  11.401000   2.272830   8.520710  66.923000  15.426800  -2.882950   2.791310  -6.662950  15.801500 -18.333500 -15.758000   2.669000 -34.492300  19.999400  58.355300  28.717000  -0.003356  -0.000162   9.358480  -0.001559   0.011282  37.252800   1.385370   1.821480  30.498500   0.002898   0.009018  21.349000   0.001604   0.004961  27.915800  -3.170510  -5.959450  32.545300  -0.000713   0.008090  21.675200   0.011720   0.000000  28.445100  -4.683900  -8.572290  42.476000   0.000312  -0.004657  28.289100   0.002418  -0.003139  43.544600  -6.758060  -7.057670  65.944300   0.004846   0.009234  43.918900   0.001632  -0.002971   0.811789   2.405690   1.402910   1.115170   1.377600  11.142600  -5.352590  -2.050160   5.695990  -0.000000   0.000000   0.000000   2.254040   1.011210  -7.821400  -1.145780   6.298570 -10.834300  -8.433750  -2.303340   0.500510  -0.000000   0.000000   0.000000
 -0.324976  89.766100  -0.249826  -0.955263  -4.085400   2.053070  -0.549314   3.580430  -1.074490  -1.034260   7.170430  -2.120500   2.241890   0.198378  -0.002659   3.688780   0.400613   8.068330  -3.209100  -1.854010   4.656530 -73.346200  19.409400   2.379380  -3.647090  -6.243720 -20.266500  16.785900  -6.147110  11.170200  46.976800  41.097600 -81.710400 -24.707000   0.003605   0.001691  -7.353520   0.000348  -0.002578 -39.950500   6.027180  -7.147420 -32.994900   0.001824   0.002142 -23.217600   0.001899  -0.002369 -32.208600  -3.174200   5.023620 -48.521200   0.003593  -0.001901 -32.315100   0.003779  -0.000642 -30.389200  -3.012850   5.121850 -45.785500   0.002237  -0.004726 -30.493100  -0.001343   0.000134 -46.835000  -4.339890   4.059970 -70.482600   0.001669   0.002159 -46.941500   0.000392   0.001786  11.429100   2.217320   8.539220  66.961400  15.383300  -2.952590   2.801710  -6.802270  15.828900 -18.357400 -15.766900   2.667280 -34.489500  19.880800  58.236200  28.680100  -0.003339  -0.000157   9.340030  -0.001556   0.011285  37.243100   1.349540   1.774550  30.489100   0.002875   0.009030  21.342400   0.001618   0.004968  27.912400  -3.172790  -5.964280  32.527300  -0.000787   0.008083  21.663200   0.011705   0.000068  28.436100  -4.739510  -8.675480  42.403600   0.000261  -0.004642  28.240900   0.002381  -0.003107  43.498600  -6.833920  -7.147370  65.890300   0.004924   0.009311  43.882900   0.001662  -0.003016   0.812098   2.406770   1.409850   1.118240   1.460100  11.132400  -5.350520  -2.074620   5.686760  -0.000000   0.000000  -0.000000   2.257750   1.012000  -7.800680  -1.144370   6.396850 -10.834300  -8.442990  -2.387790   0.461431  -0.000000   0.000000  -0.000000
 -0.345239  89.755300  -0.250290  -0.951305  -4.168280   2.066730  -0.555703   3.615220  -1.077310  -1.046190   7.240100  -2.125740   2.244770   0.198404  -0.002691   3.692050   0.400322   8.014260  -3.208200  -1.863490   4.660570 -73.372300  19.454500   2.402680  -3.665840  -6.219430 -20.318400  16.750700  -6.129590  11.176600  46.938800  41.099800 -81.687900 -24.751200   0.003592   0.001715  -7.375600   0.000349  -0.002565 -39.954700   6.002320  -7.114910 -32.995800   0.001819   0.002141 -23.218400   0.001893  -0.002367 -32.195400  -3.197320   5.062290 -48.505200   0.003592  -0.001903 -32.304400   0.003778  -0.000643 -30.380600  -3.035210   5.160950 -45.776100   0.002233  -0.004732 -30.486900  -0.001351   0.000141 -46.809300  -4.371170   4.092490 -70.448200   0.001671   0.002162 -46.918600   0.000392   0.001789  11.473300   2.116310   8.557480  67.058200  15.294900  -3.065470   2.821300  -7.105290  15.917700 -18.414800 -15.829200   2.655260 -34.494400  19.627500  58.006700  28.566100  -0.003303  -0.000145   9.283070  -0.001547   0.011292  37.164200   1.277050   1.683390  30.423200   0.002837   0.009056  21.296300   0.001718   0.004984  27.896500  -3.188790  -5.998140  32.432500  -0.000911   0.008067  21.600100   0.011671   0.000175  28.421100  -4.827710  -8.839420  42.264500   0.000158  -0.004603  28.148200   0.002303  -0.003035  43.415300  -6.952960  -7.291140  65.789400   0.005054   0.009473  43.815700   0.001712  -0.003090   0.814361   2.414400   1.416790   1.119250   1.577840  11.120600  -5.347140  -2.115730   5.674040  -0.000000   0.000000   0.000000   2.267350   1.017270  -7.767210  -1.147130   6.556980 -10.822800  -8.464630  -2.515880   0.378377  -0.000000   0.000000   0.000000
 -0.364104  89.748000  -0.248318  -0.945289  -4.251550   2.078250  -0.562551   3.653420  -1.068930  -1.059690   7.316530  -2.108460   2.248630   0.198228  -0.002725   3.696090   0.399930   7.944100  -3.211350  -1.871520   4.639130 -73.394200  19.575000   2.387630  -3.662060  -6.237520 -20.343500  16.738900  -6.162370  11.230000  46.877000  41.053600 -81.610900 -24.766300   0.003563   0.001724  -7.383160   0.000345  -0.002565 -39.974500   6.000290  -7.105970 -33.011900   0.001817   0.002146 -23.233000   0.001888  -0.002365 -32.207500  -3.207380   5.075540 -48.525100   0.003589  -0.001904 -32.317600   0.003775  -0.000645 -30.394800  -3.045110   5.174360 -45.799100   0.002226  -0.004742 -30.502200  -0.001362   0.000155 -46.831500  -4.384990   4.101990 -70.483500   0.001674   0.002167 -46.942000   0.000393   0.001793  11.504600   2.017210   8.547440  67.206700  15.192600  -3.156850   2.851370  -7.493500  16.063600 -18.505700 -16.018100   2.577920 -34.500500  19.297100  57.734900  28.398000  -0.003255  -0.000131   9.199010  -0.001529   0.011308  36.948500   1.171950   1.553410  30.244500   0.002800   0.009092  21.171200   0.003408   0.005009  27.856400  -3.251630  -6.128260  32.206300  -0.001035   0.008042  21.449400   0.011623   0.000264  28.407200  -4.902630  -8.979180  42.107400   0.000022  -0.004545  28.043600   0.002196  -0.002935  43.329900  -7.039300  -7.401460  65.679700   0.005184   0.009696  43.742700   0.001762  -0.003164   0.820856   2.478980   1.410790   1.114820   1.626910  11.119600  -5.347930  -2.149810   5.669300   0.000000   0.000000   0.000000   2.284260   1.038460  -7.744940  -1.160870   6.678220 -10.784300  -8.493240  -2.599480   0.277832   0.000000   0.000000   0.000000
 -0.383247  89.742300  -0.243390  -0.935689  -4.347300   2.084870  -0.570009   3.700050  -1.052110  -1.075050   7.409790  -2.073720   2.251140   0.198007  -0.002756   3.698880   0.399704   7.867810  -3.218430  -1.881640   4.590710 -73.412400  19.727600   2.350920  -3.653860  -6.283980 -20.362600  16.728600  -6.272220  11.317100  46.805100  40.976800 -81.505200 -24.774800   0.003530   0.001726  -7.387390   0.000336  -0.002565 -39.994000   5.998210  -7.100310 -33.027200   0.001814   0.002153 -23.246900   0.001879  -0.002361 -32.227400  -3.218990   5.090090 -48.555900   0.003585  -0.001907 -32.338200   0.003773  -0.000647 -30.417700  -3.056450   5.189160 -45.834400   0.002216  -0.004754 -30.525700  -0.001377   0.000172 -46.866700  -4.400970   4.111990 -70.537300   0.001679   0.002174 -46.977800   0.000394   0.001799  11.529200   1.908820   8.505150  67.389900  15.067300  -3.228990   2.870060  -7.970910  16.294200 -18.635500 -16.467800   2.428840 -34.557100  18.920100  57.476400  28.101000  -0.003204  -0.000105   9.050520  -0.001507   0.011319  36.655600   1.092080   1.467660  30.002700   0.002778   0.009134  21.001900   0.006180   0.005038  27.811200  -3.300740  -6.229380  31.931100  -0.001109   0.008010  21.266100   0.011575   0.000313  28.399100  -4.944910  -9.058200  41.942300  -0.000101  -0.004473  27.933600   0.002088  -0.002829  43.247300  -7.103800  -7.489880  65.569500   0.005263   0.009918  43.669300   0.001791  -0.003208   0.824377   2.586150   1.401010   1.109660   1.659420  11.118700  -5.351730  -2.183280   5.668110  -0.000000   0.000000  -0.000000   2.305190   1.077130  -7.719460  -1.181930   6.793940 -10.722700  -8.532420  -2.652340   0.148727   0.000000   0.000000   0.000000
